<?xml version="1.0" encoding="UTF-8"?>
<svg version="1.1" xmlns="http://www.w3.org/2000/svg" width="80" height="80">
<path d="M0 0 C8.44838802 6.27407421 14.28048054 14.62264778 16.875 24.875 C18.66020669 37.96752947 16.38572466 48.81512583 8.6875 59.6875 C2.89326564 66.61292979 -5.05930196 72.47737155 -14.125 73.875 C-28.17116094 74.9941751 -38.21258218 73.79636293 -49.61328125 65.03515625 C-53.1786734 61.9688081 -55.78178988 58.94704197 -58.125 54.875 C-58.6096875 54.03710938 -59.094375 53.19921875 -59.59375 52.3359375 C-64.38529171 42.67299505 -64.86816866 31.76320392 -62.23828125 21.37109375 C-57.69493882 9.55236578 -50.11922922 1.79207862 -39.1171875 -4.22265625 C-26.74339723 -9.43905803 -10.9317591 -7.03222115 0 0 Z " fill="#19F56A" transform="translate(63.125,6.125)"/>
<path d="M0 0 C3.92969376 1.37154018 6.60203927 3.5714269 9.4375 6.625 C11.91285826 11.97177383 11.9345604 17.31313884 10 22.875 C9.67 23.57625 9.34 24.2775 9 25 C9 26.32 9 27.64 9 29 C9.62648437 29.10957031 10.25296875 29.21914063 10.8984375 29.33203125 C11.71570312 29.49058594 12.53296875 29.64914063 13.375 29.8125 C14.18710937 29.96332031 14.99921875 30.11414063 15.8359375 30.26953125 C18 31 18 31 20 34 C19.625 37.1875 19.625 37.1875 19 40 C16.69 40.66 14.38 41.32 12 42 C12.33 42.33 12.66 42.66 13 43 C13.29044498 45.7592273 13.3190465 47.43697676 11.9375 49.875 C10 51 10 51 6.6875 51.125 C1.82388731 49.64118596 -0.11884635 47.04205805 -3 43 C-6.2766993 43.77600533 -6.2766993 43.77600533 -8.25 47 C-10.42655952 49.73718849 -11.00798577 50.00234066 -14.625 51.0625 C-18 51 -18 51 -20 49.9375 C-21.47177143 47.08594286 -20.74138999 45.03295907 -20 42 C-20.94875 41.71125 -21.8975 41.4225 -22.875 41.125 C-26 40 -26 40 -28 38 C-27.8125 35 -27.8125 35 -27 32 C-24.09907498 30.06604999 -23.10325263 29.69868059 -19.8125 29.375 C-18.554375 29.25125 -17.29625 29.1275 -16 29 C-16.2165625 28.46632813 -16.433125 27.93265625 -16.65625 27.3828125 C-18.83224662 21.56000672 -19.94170825 16.21104202 -19 10 C-15.08279598 1.86426858 -8.76409836 -1.49630948 0 0 Z " fill="#18E965" transform="translate(44,16)"/>
<path d="M0 0 C3.92969376 1.37154018 6.60203927 3.5714269 9.4375 6.625 C11.91285826 11.97177383 11.9345604 17.31313884 10 22.875 C9.67 23.57625 9.34 24.2775 9 25 C9 26.32 9 27.64 9 29 C9.62648437 29.10957031 10.25296875 29.21914063 10.8984375 29.33203125 C11.71570312 29.49058594 12.53296875 29.64914063 13.375 29.8125 C14.18710937 29.96332031 14.99921875 30.11414063 15.8359375 30.26953125 C18 31 18 31 20 34 C19.625 37.1875 19.625 37.1875 19 40 C16.69 40.66 14.38 41.32 12 42 C12.33 42.33 12.66 42.66 13 43 C13.29044498 45.7592273 13.3190465 47.43697676 11.9375 49.875 C10 51 10 51 6.6875 51.125 C1.82388731 49.64118596 -0.11884635 47.04205805 -3 43 C-6.2766993 43.77600533 -6.2766993 43.77600533 -8.25 47 C-10.42655952 49.73718849 -11.00798577 50.00234066 -14.625 51.0625 C-18 51 -18 51 -20 49.9375 C-21.47177143 47.08594286 -20.74138999 45.03295907 -20 42 C-20.94875 41.71125 -21.8975 41.4225 -22.875 41.125 C-26 40 -26 40 -28 38 C-27.8125 35 -27.8125 35 -27 32 C-24.09907498 30.06604999 -23.10325263 29.69868059 -19.8125 29.375 C-18.554375 29.25125 -17.29625 29.1275 -16 29 C-16.2165625 28.46632813 -16.433125 27.93265625 -16.65625 27.3828125 C-18.83224662 21.56000672 -19.94170825 16.21104202 -19 10 C-15.08279598 1.86426858 -8.76409836 -1.49630948 0 0 Z M-14.3125 8.125 C-16.64910632 12.10588484 -16.72544508 15.48245562 -16 20 C-15.0398183 21.68991979 -14.04644066 23.36209288 -13 25 C-12.9375 27.625 -12.9375 27.625 -14 30 C-16.75 31.6875 -16.75 31.6875 -20 33 C-20.94875 33.391875 -21.8975 33.78375 -22.875 34.1875 C-23.57625 34.455625 -24.2775 34.72375 -25 35 C-24.67 35.99 -24.34 36.98 -24 38 C-18.06 37.505 -18.06 37.505 -12 37 C-13.14759489 41.59037956 -14.29039218 42.33669182 -18 45 C-17.67 45.99 -17.34 46.98 -17 48 C-13.14896699 47.46324097 -11.68202413 45.88399077 -9.25 42.9375 C-8.63640625 42.20402344 -8.0228125 41.47054687 -7.390625 40.71484375 C-6.93171875 40.14894531 -6.4728125 39.58304688 -6 39 C-1.62346871 39.47620289 0.06538005 40.66899889 2.8125 44.0625 C3.41707031 44.79597656 4.02164063 45.52945313 4.64453125 46.28515625 C5.09183594 46.85105469 5.53914063 47.41695312 6 48 C7.98 47.505 7.98 47.505 10 47 C8.63016497 43.83884224 8.0109362 43.0072908 5 41 C4.67 39.68 4.34 38.36 4 37 C7.96 37.33 11.92 37.66 16 38 C16 36.68 16 35.36 16 34 C15.37351563 33.80664062 14.74703125 33.61328125 14.1015625 33.4140625 C13.28429688 33.15367188 12.46703125 32.89328125 11.625 32.625 C10.40683594 32.24214844 10.40683594 32.24214844 9.1640625 31.8515625 C7 31 7 31 5 29 C5.32417863 25.19090105 5.85581442 23.21627837 8 20 C8.78896037 16.08554277 8.73701239 12.51325739 6.97265625 8.890625 C4.27751583 5.27719574 1.92416536 3.58026178 -2.5625 2.875 C-7.93612826 2.6946769 -10.43663959 4.56339854 -14.3125 8.125 Z " fill="#021509" transform="translate(44,16)"/>
</svg>
