<svg xmlns="http://www.w3.org/2000/svg" xmlns:xlink="http://www.w3.org/1999/xlink" width="32px" height="32px" viewBox="0 0 32 32" version="1.1">
<g id="surface1">
<path style=" stroke:none;fill-rule:nonzero;fill:rgb(0%,93.725491%,54.509807%);fill-opacity:1;" d="M 31.9375 16.03125 C 31.9375 7.25 24.816406 0.128906 16.03125 0.128906 C 7.25 0.128906 0.128906 7.25 0.128906 16.03125 C 0.128906 24.816406 7.25 31.9375 16.03125 31.9375 C 24.816406 31.9375 31.9375 24.816406 31.9375 16.03125 Z M 31.9375 16.03125 "/>
<path style=" stroke:none;fill-rule:nonzero;fill:rgb(100%,100%,100%);fill-opacity:1;" d="M 18.523438 13.542969 L 23.015625 13.542969 L 23.015625 18.035156 L 18.523438 18.035156 Z M 18.523438 13.542969 "/>
<path style=" stroke:none;fill-rule:nonzero;fill:rgb(100%,100%,100%);fill-opacity:1;" d="M 14.027344 19.71875 C 14.027344 20.644531 13.273438 21.402344 12.34375 21.402344 C 11.417969 21.402344 10.664062 20.644531 10.664062 19.71875 C 10.664062 18.789062 11.417969 18.035156 12.34375 18.035156 L 14.027344 18.035156 L 14.027344 13.546875 L 12.34375 13.546875 C 8.933594 13.546875 6.167969 16.3125 6.167969 19.726562 C 6.167969 23.136719 8.933594 25.902344 12.34375 25.902344 C 15.757812 25.902344 18.523438 23.136719 18.523438 19.726562 L 18.523438 18.042969 L 14.035156 18.042969 L 14.035156 19.71875 Z M 14.027344 19.71875 "/>
<path style=" stroke:none;fill-rule:nonzero;fill:rgb(100%,100%,100%);fill-opacity:1;" d="M 20.203125 11.296875 L 25.253906 11.296875 L 25.253906 6.804688 L 20.203125 6.804688 C 16.792969 6.808594 14.035156 9.566406 14.027344 12.980469 L 14.027344 13.542969 L 18.515625 13.542969 L 18.515625 12.980469 C 18.523438 12.050781 19.277344 11.296875 20.203125 11.296875 Z M 20.203125 11.296875 "/>
<path style=" stroke:none;fill-rule:nonzero;fill:rgb(8.627451%,100%,60.000002%);fill-opacity:1;" d="M 14.027344 18.035156 L 18.523438 18.035156 L 18.523438 13.542969 L 14.027344 13.542969 Z M 14.027344 18.035156 "/>
</g>
</svg>
